<svg id="White" xmlns="http://www.w3.org/2000/svg" width="172" height="167"><defs><style>.cls-1{fill:#fff}.cls-2{fill:#333}</style></defs><g id="XXS_copy" data-name="XXS copy"><path class="cls-1" d="M.69 42.29h27.1v1.18H.69zM.69 40.97h27.1v1.18H.69zM.69 39.49h27.1v1.18H.69zM.69 37.72h27.1v1.18H.69z"/></g><g id="XS_copy" data-name="XS copy"><path class="cls-1" d="M29.16 42.29h27.1v1.18h-27.1zM29.16 40.97h27.1v1.18h-27.1zM29.16 39.49h27.1v1.18h-27.1zM29.16 37.72h27.1v1.18h-27.1zM29.16 35.65h27.1v1.18h-27.1z"/></g><g id="S_copy" data-name="S copy"><path class="cls-1" d="M57.62 42.29h27.1v1.18h-27.1zM57.62 40.97h27.1v1.18h-27.1zM57.62 39.49h27.1v1.18h-27.1zM57.62 37.72h27.1v1.18h-27.1zM57.62 35.65h27.1v1.18h-27.1zM57.62 33.31h27.1v1.18h-27.1z"/></g><g id="M_copy" data-name="M copy"><path class="cls-1" d="M86.09 42.29h27.1v1.18h-27.1zM86.09 40.97h27.1v1.18h-27.1zM86.09 39.49h27.1v1.18h-27.1zM86.09 37.72h27.1v1.18h-27.1zM86.09 35.65h27.1v1.18h-27.1zM86.09 33.31h27.1v1.18h-27.1zM86.09 30.66h27.1v1.18h-27.1z"/></g><g id="L_copy" data-name="L copy"><path class="cls-1" d="M114.55 42.29h27.1v1.18h-27.1zM114.55 40.97h27.1v1.18h-27.1zM114.55 39.49h27.1v1.18h-27.1zM114.55 37.72h27.1v1.18h-27.1zM114.55 35.65h27.1v1.18h-27.1zM114.55 33.31h27.1v1.18h-27.1zM114.55 30.66h27.1v1.18h-27.1zM114.55 27.71h27.1v1.18h-27.1z"/></g><g id="XL_copy" data-name="XL copy"><path class="cls-1" d="M143.02 42.29h27.1v1.18h-27.1zM143.02 40.97h27.1v1.18h-27.1zM143.02 39.49h27.1v1.18h-27.1zM143.02 37.72h27.1v1.18h-27.1zM143.02 35.65h27.1v1.18h-27.1zM143.02 33.31h27.1v1.18h-27.1zM143.02 30.66h27.1v1.18h-27.1zM143.02 27.71h27.1v1.18h-27.1zM143.02 24.47h27.1v1.18h-27.1z"/></g><g id="XXS"><path class="cls-2" d="M.69 19.29h27.1v1.18H.69zM.69 17.96h27.1v1.18H.69zM.69 16.49h27.1v1.18H.69zM.69 14.72h27.1v1.18H.69z"/></g><g id="XS"><path class="cls-2" d="M29.16 19.29h27.1v1.18h-27.1zM29.16 17.96h27.1v1.18h-27.1zM29.16 16.49h27.1v1.18h-27.1zM29.16 14.72h27.1v1.18h-27.1zM29.16 12.64h27.1v1.18h-27.1z"/></g><g id="S"><path class="cls-2" d="M57.62 19.29h27.1v1.18h-27.1zM57.62 17.96h27.1v1.18h-27.1zM57.62 16.49h27.1v1.18h-27.1zM57.62 14.72h27.1v1.18h-27.1zM57.62 12.64h27.1v1.18h-27.1zM57.62 10.3h27.1v1.18h-27.1z"/></g><g id="M"><path class="cls-2" d="M86.09 19.29h27.1v1.18h-27.1zM86.09 17.96h27.1v1.18h-27.1zM86.09 16.49h27.1v1.18h-27.1zM86.09 14.72h27.1v1.18h-27.1zM86.09 12.64h27.1v1.18h-27.1zM86.09 10.3h27.1v1.18h-27.1zM86.09 7.65h27.1v1.18h-27.1z"/></g><g id="L"><path class="cls-2" d="M114.55 19.29h27.1v1.18h-27.1zM114.55 17.96h27.1v1.18h-27.1zM114.55 16.49h27.1v1.18h-27.1zM114.55 14.72h27.1v1.18h-27.1zM114.55 12.64h27.1v1.18h-27.1zM114.55 10.3h27.1v1.18h-27.1zM114.55 7.65h27.1v1.18h-27.1zM114.55 4.71h27.1v1.18h-27.1z"/></g><g id="XL"><path class="cls-2" d="M143.02 19.29h27.1v1.18h-27.1zM143.02 17.96h27.1v1.18h-27.1zM143.02 16.49h27.1v1.18h-27.1zM143.02 14.72h27.1v1.18h-27.1zM143.02 12.64h27.1v1.18h-27.1zM143.02 10.3h27.1v1.18h-27.1zM143.02 7.65h27.1v1.18h-27.1zM143.02 4.71h27.1v1.18h-27.1zM143.02 1.47h27.1v1.18h-27.1z"/></g><g id="XXS_copy_3" data-name="XXS copy 3"><path class="cls-1" transform="rotate(-90 16.53 150.04)" d="M2.98 149.45h27.1v1.18H2.98z"/><path class="cls-1" transform="rotate(-90 15.2 150.04)" d="M1.65 149.45h27.1v1.18H1.65z"/><path class="cls-1" transform="rotate(-90 13.73 150.04)" d="M.18 149.45h27.1v1.18H.18z"/><path class="cls-1" transform="rotate(-90 11.96 150.04)" d="M-1.59 149.45h27.1v1.18h-27.1z"/></g><g id="XS_copy_3" data-name="XS copy 3"><path class="cls-1" transform="rotate(-90 46.03 150.04)" d="M32.48 149.45h27.1v1.18h-27.1z"/><path class="cls-1" transform="rotate(-90 44.7 150.04)" d="M31.15 149.45h27.1v1.18h-27.1z"/><path class="cls-1" transform="rotate(-90 43.23 150.04)" d="M29.68 149.45h27.1v1.18h-27.1z"/><path class="cls-1" transform="rotate(-90 41.46 150.04)" d="M27.91 149.45h27.1v1.18h-27.1z"/><path class="cls-1" transform="rotate(-90 39.39 150.04)" d="M25.84 149.45h27.1v1.18h-27.1z"/></g><g id="S_copy_3" data-name="S copy 3"><path class="cls-1" transform="rotate(-90 75.665 150.035)" d="M62.11 149.45h27.1v1.18h-27.1z"/><path class="cls-1" transform="rotate(-90 74.34 150.04)" d="M60.79 149.45h27.1v1.18h-27.1z"/><path class="cls-1" transform="rotate(-90 72.87 150.04)" d="M59.32 149.45h27.1v1.18h-27.1z"/><path class="cls-1" transform="rotate(-90 71.1 150.04)" d="M57.55 149.45h27.1v1.18h-27.1z"/><path class="cls-1" transform="rotate(-90 69.02 150.04)" d="M55.47 149.45h27.1v1.18h-27.1z"/><path class="cls-1" transform="rotate(-90 66.68 150.04)" d="M53.13 149.45h27.1v1.18h-27.1z"/></g><g id="M_copy_3" data-name="M copy 3"><path class="cls-1" transform="rotate(-90 105.455 150.035)" d="M91.9 149.45H119v1.18H91.9z"/><path class="cls-1" transform="rotate(-90 104.13 150.04)" d="M90.58 149.45h27.1v1.18h-27.1z"/><path class="cls-1" transform="rotate(-90 102.66 150.04)" d="M89.11 149.45h27.1v1.18h-27.1z"/><path class="cls-1" transform="rotate(-90 100.89 150.04)" d="M87.34 149.45h27.1v1.18h-27.1z"/><path class="cls-1" transform="rotate(-90 98.81 150.04)" d="M85.26 149.45h27.1v1.18h-27.1z"/><path class="cls-1" transform="rotate(-90 96.47 150.04)" d="M82.92 149.45h27.1v1.18h-27.1z"/><path class="cls-1" transform="rotate(-90 93.82 150.04)" d="M80.27 149.45h27.1v1.18h-27.1z"/></g><g id="L_copy_3" data-name="L copy 3"><path class="cls-1" transform="rotate(-90 135.39 150.04)" d="M121.84 149.45h27.1v1.18h-27.1z"/><path class="cls-1" transform="rotate(-90 134.07 150.04)" d="M120.52 149.45h27.1v1.18h-27.1z"/><path class="cls-1" transform="rotate(-90 132.59 150.04)" d="M119.04 149.45h27.1v1.18h-27.1z"/><path class="cls-1" transform="rotate(-90 130.83 150.04)" d="M117.28 149.45h27.1v1.18h-27.1z"/><path class="cls-1" transform="rotate(-90 128.75 150.04)" d="M115.2 149.45h27.1v1.18h-27.1z"/><path class="cls-1" transform="rotate(-90 126.41 150.04)" d="M112.86 149.45h27.1v1.18h-27.1z"/><path class="cls-1" transform="rotate(-90 123.76 150.04)" d="M110.21 149.45h27.1v1.18h-27.1z"/><path class="cls-1" transform="rotate(-90 120.81 150.04)" d="M107.26 149.45h27.1v1.18h-27.1z"/></g><g id="XL_copy_3" data-name="XL copy 3"><path class="cls-1" transform="rotate(-90 165.48 150.04)" d="M151.93 149.45h27.1v1.18h-27.1z"/><path class="cls-1" transform="rotate(-90 164.15 150.04)" d="M150.6 149.45h27.1v1.18h-27.1z"/><path class="cls-1" transform="rotate(-90 162.68 150.04)" d="M149.13 149.45h27.1v1.18h-27.1z"/><path class="cls-1" transform="rotate(-90 160.91 150.04)" d="M147.36 149.45h27.1v1.18h-27.1z"/><path class="cls-1" transform="rotate(-90 158.83 150.04)" d="M145.28 149.45h27.1v1.18h-27.1z"/><path class="cls-1" transform="rotate(-90 156.49 150.04)" d="M142.94 149.45h27.1v1.18h-27.1z"/><path class="cls-1" transform="rotate(-90 153.84 150.04)" d="M140.29 149.45h27.1v1.18h-27.1z"/><path class="cls-1" transform="rotate(-90 150.895 150.035)" d="M137.35 149.45h27.1v1.18h-27.1z"/><path class="cls-1" transform="rotate(-90 147.655 150.035)" d="M134.1 149.45h27.1v1.18h-27.1z"/></g><g id="XXS_copy_2" data-name="XXS copy 2"><path class="cls-2" transform="rotate(-90 16.525 120.375)" d="M2.98 119.79h27.1v1.18H2.98z"/><path class="cls-2" transform="rotate(-90 15.2 120.38)" d="M1.65 119.79h27.1v1.18H1.65z"/><path class="cls-2" transform="rotate(-90 13.725 120.375)" d="M.18 119.79h27.1v1.18H.18z"/><path class="cls-2" transform="rotate(-90 11.96 120.38)" d="M-1.59 119.79h27.1v1.18h-27.1z"/></g><g id="XS_copy_2" data-name="XS copy 2"><path class="cls-2" transform="rotate(-90 46.03 120.38)" d="M32.48 119.79h27.1v1.18h-27.1z"/><path class="cls-2" transform="rotate(-90 44.705 120.375)" d="M31.15 119.79h27.1v1.18h-27.1z"/><path class="cls-2" transform="rotate(-90 43.23 120.38)" d="M29.68 119.79h27.1v1.18h-27.1z"/><path class="cls-2" transform="rotate(-90 41.465 120.375)" d="M27.91 119.79h27.1v1.18h-27.1z"/><path class="cls-2" transform="rotate(-90 39.385 120.375)" d="M25.84 119.79h27.1v1.18h-27.1z"/></g><g id="S_copy_2" data-name="S copy 2"><path class="cls-2" transform="rotate(-90 75.665 120.375)" d="M62.11 119.79h27.1v1.18h-27.1z"/><path class="cls-2" transform="rotate(-90 74.34 120.38)" d="M60.79 119.79h27.1v1.18h-27.1z"/><path class="cls-2" transform="rotate(-90 72.865 120.375)" d="M59.32 119.79h27.1v1.18h-27.1z"/><path class="cls-2" transform="rotate(-90 71.1 120.38)" d="M57.55 119.79h27.1v1.18h-27.1z"/><path class="cls-2" transform="rotate(-90 69.02 120.38)" d="M55.47 119.79h27.1v1.18h-27.1z"/><path class="cls-2" transform="rotate(-90 66.68 120.38)" d="M53.13 119.79h27.1v1.18h-27.1z"/></g><g id="M_copy_2" data-name="M copy 2"><path class="cls-2" transform="rotate(-90 105.455 120.375)" d="M91.9 119.79H119v1.18H91.9z"/><path class="cls-2" transform="rotate(-90 104.13 120.38)" d="M90.58 119.79h27.1v1.18h-27.1z"/><path class="cls-2" transform="rotate(-90 102.655 120.375)" d="M89.11 119.79h27.1v1.18h-27.1z"/><path class="cls-2" transform="rotate(-90 100.89 120.38)" d="M87.34 119.79h27.1v1.18h-27.1z"/><path class="cls-2" transform="rotate(-90 98.81 120.38)" d="M85.26 119.79h27.1v1.18h-27.1z"/><path class="cls-2" transform="rotate(-90 96.47 120.38)" d="M82.92 119.79h27.1v1.18h-27.1z"/><path class="cls-2" transform="rotate(-90 93.82 120.38)" d="M80.27 119.79h27.1v1.18h-27.1z"/></g><g id="L_copy_2" data-name="L copy 2"><path class="cls-2" transform="rotate(-90 135.395 120.375)" d="M121.84 119.79h27.1v1.18h-27.1z"/><path class="cls-2" transform="rotate(-90 134.065 120.375)" d="M120.52 119.79h27.1v1.18h-27.1z"/><path class="cls-2" transform="rotate(-90 132.595 120.375)" d="M119.04 119.79h27.1v1.18h-27.1z"/><path class="cls-2" transform="rotate(-90 130.825 120.375)" d="M117.28 119.79h27.1v1.18h-27.1z"/><path class="cls-2" transform="rotate(-90 128.745 120.375)" d="M115.2 119.79h27.1v1.18h-27.1z"/><path class="cls-2" transform="rotate(-90 126.405 120.375)" d="M112.86 119.79h27.1v1.18h-27.1z"/><path class="cls-2" transform="rotate(-90 123.755 120.375)" d="M110.21 119.79h27.1v1.18h-27.1z"/><path class="cls-2" transform="rotate(-90 120.81 120.38)" d="M107.26 119.79h27.1v1.18h-27.1z"/></g><g id="XL_copy_2" data-name="XL copy 2"><path class="cls-2" transform="rotate(-90 165.475 120.375)" d="M151.93 119.79h27.1v1.18h-27.1z"/><path class="cls-2" transform="rotate(-90 164.15 120.38)" d="M150.6 119.79h27.1v1.18h-27.1z"/><path class="cls-2" transform="rotate(-90 162.675 120.375)" d="M149.13 119.79h27.1v1.18h-27.1z"/><path class="cls-2" transform="rotate(-90 160.91 120.38)" d="M147.36 119.79h27.1v1.18h-27.1z"/><path class="cls-2" transform="rotate(-90 158.835 120.375)" d="M145.28 119.79h27.1v1.18h-27.1z"/><path class="cls-2" transform="rotate(-90 156.495 120.375)" d="M142.94 119.79h27.1v1.18h-27.1z"/><path class="cls-2" transform="rotate(-90 153.84 120.38)" d="M140.29 119.79h27.1v1.18h-27.1z"/><path class="cls-2" transform="rotate(-90 150.895 120.375)" d="M137.35 119.79h27.1v1.18h-27.1z"/><path class="cls-2" transform="rotate(-90 147.655 120.375)" d="M134.1 119.79h27.1v1.18h-27.1z"/></g><g id="XXS-2" data-name="XXS"><path class="cls-1" transform="rotate(90 11.96 90.48)" d="M-1.59 89.89h27.1v1.18h-27.1z"/><path class="cls-1" transform="rotate(90 13.285 90.475)" d="M-.26 89.89h27.1v1.18H-.26z"/><path class="cls-1" transform="rotate(90 14.76 90.48)" d="M1.21 89.89h27.1v1.18H1.21z"/><path class="cls-1" transform="rotate(90 16.53 90.48)" d="M2.98 89.89h27.1v1.18H2.98z"/></g><g id="XS-2" data-name="XS"><path class="cls-1" transform="rotate(90 39.385 90.475)" d="M25.84 89.89h27.1v1.18h-27.1z"/><path class="cls-1" transform="rotate(90 40.71 90.48)" d="M27.16 89.89h27.1v1.18h-27.1z"/><path class="cls-1" transform="rotate(90 42.185 90.475)" d="M28.63 89.89h27.1v1.18h-27.1z"/><path class="cls-1" transform="rotate(90 43.95 90.48)" d="M30.4 89.89h27.1v1.18H30.4z"/><path class="cls-1" transform="rotate(90 46.03 90.48)" d="M32.48 89.89h27.1v1.18h-27.1z"/></g><g id="S-2" data-name="S"><path class="cls-1" transform="rotate(90 66.68 90.48)" d="M53.13 89.89h27.1v1.18h-27.1z"/><path class="cls-1" transform="rotate(90 68.005 90.475)" d="M54.46 89.89h27.1v1.18h-27.1z"/><path class="cls-1" transform="rotate(90 69.48 90.48)" d="M55.93 89.89h27.1v1.18h-27.1z"/><path class="cls-1" transform="rotate(90 71.25 90.48)" d="M57.7 89.89h27.1v1.18H57.7z"/><path class="cls-1" transform="rotate(90 73.325 90.475)" d="M59.77 89.89h27.1v1.18h-27.1z"/><path class="cls-1" transform="rotate(90 75.665 90.475)" d="M62.11 89.89h27.1v1.18h-27.1z"/></g><g id="M-2" data-name="M"><path class="cls-1" transform="rotate(90 93.82 90.48)" d="M80.27 89.89h27.1v1.18h-27.1z"/><path class="cls-1" transform="rotate(90 95.145 90.475)" d="M81.59 89.89h27.1v1.18h-27.1z"/><path class="cls-1" transform="rotate(90 96.62 90.48)" d="M83.07 89.89h27.1v1.18h-27.1z"/><path class="cls-1" transform="rotate(90 98.385 90.475)" d="M84.83 89.89h27.1v1.18h-27.1z"/><path class="cls-1" transform="rotate(90 100.46 90.48)" d="M86.91 89.89h27.1v1.18h-27.1z"/><path class="cls-1" transform="rotate(90 102.8 90.48)" d="M89.25 89.89h27.1v1.18h-27.1z"/><path class="cls-1" transform="rotate(90 105.455 90.475)" d="M91.9 89.89H119v1.18H91.9z"/></g><g id="L-2" data-name="L"><path class="cls-1" transform="rotate(90 120.81 90.48)" d="M107.26 89.89h27.1v1.18h-27.1z"/><path class="cls-1" transform="rotate(90 122.14 90.48)" d="M108.59 89.89h27.1v1.18h-27.1z"/><path class="cls-1" transform="rotate(90 123.61 90.48)" d="M110.06 89.89h27.1v1.18h-27.1z"/><path class="cls-1" transform="rotate(90 125.38 90.48)" d="M111.83 89.89h27.1v1.18h-27.1z"/><path class="cls-1" transform="rotate(90 127.455 90.475)" d="M113.9 89.89H141v1.18h-27.1z"/><path class="cls-1" transform="rotate(90 129.795 90.475)" d="M116.24 89.89h27.1v1.18h-27.1z"/><path class="cls-1" transform="rotate(90 132.45 90.48)" d="M118.9 89.89H146v1.18h-27.1z"/><path class="cls-1" transform="rotate(90 135.39 90.48)" d="M121.84 89.89h27.1v1.18h-27.1z"/></g><g id="XL-2" data-name="XL"><path class="cls-1" transform="rotate(90 147.655 90.475)" d="M134.1 89.89h27.1v1.18h-27.1z"/><path class="cls-1" transform="rotate(90 148.98 90.48)" d="M135.43 89.89h27.1v1.18h-27.1z"/><path class="cls-1" transform="rotate(90 150.45 90.48)" d="M136.9 89.89H164v1.18h-27.1z"/><path class="cls-1" transform="rotate(90 152.22 90.48)" d="M138.67 89.89h27.1v1.18h-27.1z"/><path class="cls-1" transform="rotate(90 154.3 90.48)" d="M140.75 89.89h27.1v1.18h-27.1z"/><path class="cls-1" transform="rotate(90 156.64 90.48)" d="M143.09 89.89h27.1v1.18h-27.1z"/><path class="cls-1" transform="rotate(90 159.29 90.48)" d="M145.74 89.89h27.1v1.18h-27.1z"/><path class="cls-1" transform="rotate(90 162.24 90.48)" d="M148.69 89.89h27.1v1.18h-27.1z"/><path class="cls-1" transform="rotate(90 165.48 90.48)" d="M151.93 89.89h27.1v1.18h-27.1z"/></g><g id="XXS-3" data-name="XXS"><path class="cls-2" transform="rotate(90 11.96 60.58)" d="M-1.59 59.99h27.1v1.18h-27.1z"/><path class="cls-2" transform="rotate(90 13.285 60.585)" d="M-.26 59.99h27.1v1.18H-.26z"/><path class="cls-2" transform="rotate(90 14.76 60.58)" d="M1.21 59.99h27.1v1.18H1.21z"/><path class="cls-2" transform="rotate(90 16.525 60.585)" d="M2.98 59.99h27.1v1.18H2.98z"/></g><g id="XS-3" data-name="XS"><path class="cls-2" transform="rotate(90 39.385 60.585)" d="M25.84 59.99h27.1v1.18h-27.1z"/><path class="cls-2" transform="rotate(90 40.71 60.58)" d="M27.16 59.99h27.1v1.18h-27.1z"/><path class="cls-2" transform="rotate(90 42.185 60.585)" d="M28.63 59.99h27.1v1.18h-27.1z"/><path class="cls-2" transform="rotate(90 43.95 60.58)" d="M30.4 59.99h27.1v1.18H30.4z"/><path class="cls-2" transform="rotate(90 46.03 60.58)" d="M32.48 59.99h27.1v1.18h-27.1z"/></g><g id="S-3" data-name="S"><path class="cls-2" transform="rotate(90 66.68 60.58)" d="M53.13 59.99h27.1v1.18h-27.1z"/><path class="cls-2" transform="rotate(90 68.005 60.585)" d="M54.46 59.99h27.1v1.18h-27.1z"/><path class="cls-2" transform="rotate(90 69.48 60.58)" d="M55.93 59.99h27.1v1.18h-27.1z"/><path class="cls-2" transform="rotate(90 71.245 60.585)" d="M57.7 59.99h27.1v1.18H57.7z"/><path class="cls-2" transform="rotate(90 73.325 60.585)" d="M59.77 59.99h27.1v1.18h-27.1z"/><path class="cls-2" transform="rotate(90 75.665 60.585)" d="M62.11 59.99h27.1v1.18h-27.1z"/></g><g id="M-3" data-name="M"><path class="cls-2" transform="rotate(90 93.82 60.58)" d="M80.27 59.99h27.1v1.18h-27.1z"/><path class="cls-2" transform="rotate(90 95.145 60.585)" d="M81.59 59.99h27.1v1.18h-27.1z"/><path class="cls-2" transform="rotate(90 96.62 60.58)" d="M83.07 59.99h27.1v1.18h-27.1z"/><path class="cls-2" transform="rotate(90 98.385 60.585)" d="M84.83 59.99h27.1v1.18h-27.1z"/><path class="cls-2" transform="rotate(90 100.465 60.585)" d="M86.91 59.99h27.1v1.18h-27.1z"/><path class="cls-2" transform="rotate(90 102.805 60.585)" d="M89.25 59.99h27.1v1.18h-27.1z"/><path class="cls-2" transform="rotate(90 105.455 60.585)" d="M91.9 59.99H119v1.18H91.9z"/></g><g id="L-3" data-name="L"><path class="cls-2" transform="rotate(90 120.81 60.58)" d="M107.26 59.99h27.1v1.18h-27.1z"/><path class="cls-2" transform="rotate(90 122.135 60.585)" d="M108.59 59.99h27.1v1.18h-27.1z"/><path class="cls-2" transform="rotate(90 123.61 60.58)" d="M110.06 59.99h27.1v1.18h-27.1z"/><path class="cls-2" transform="rotate(90 125.375 60.585)" d="M111.83 59.99h27.1v1.18h-27.1z"/><path class="cls-2" transform="rotate(90 127.455 60.585)" d="M113.9 59.99H141v1.18h-27.1z"/><path class="cls-2" transform="rotate(90 129.795 60.585)" d="M116.24 59.99h27.1v1.18h-27.1z"/><path class="cls-2" transform="rotate(90 132.445 60.585)" d="M118.9 59.99H146v1.18h-27.1z"/><path class="cls-2" transform="rotate(90 135.39 60.58)" d="M121.84 59.99h27.1v1.18h-27.1z"/></g><g id="XL-3" data-name="XL"><path class="cls-2" transform="rotate(90 147.655 60.585)" d="M134.1 59.99h27.1v1.18h-27.1z"/><path class="cls-2" transform="rotate(90 148.98 60.58)" d="M135.43 59.99h27.1v1.18h-27.1z"/><path class="cls-2" transform="rotate(90 150.455 60.585)" d="M136.9 59.99H164v1.18h-27.1z"/><path class="cls-2" transform="rotate(90 152.22 60.58)" d="M138.67 59.99h27.1v1.18h-27.1z"/><path class="cls-2" transform="rotate(90 154.3 60.58)" d="M140.75 59.99h27.1v1.18h-27.1z"/><path class="cls-2" transform="rotate(90 156.64 60.58)" d="M143.09 59.99h27.1v1.18h-27.1z"/><path class="cls-2" transform="rotate(90 159.29 60.58)" d="M145.74 59.99h27.1v1.18h-27.1z"/><path class="cls-2" transform="rotate(90 162.235 60.585)" d="M148.69 59.99h27.1v1.18h-27.1z"/><path class="cls-2" transform="rotate(90 165.48 60.58)" d="M151.93 59.99h27.1v1.18h-27.1z"/></g></svg>